<svg width="128" height="128" xmlns="http://www.w3.org/2000/svg">
 <title/>

 <g>
  <title>background</title>
  <rect fill="none" id="canvas_background" height="402" width="582" y="-1" x="-1"/>
 </g>
 <g>
  <title>Layer 1</title>
  <path fill="#4f7cac" id="svg_1" d="m98.970703,0l-69.56,0a7.21,7.21 0 0 0 -7.22,7.19l0,113.61a7.08,7.08 0 0 0 4.42,6.63a7.22,7.22 0 0 0 7.87,-1.5l28.85,-28.34a1.23,1.23 0 0 1 1.72,0l28.86,28.33a7.21,7.21 0 0 0 7.87,1.5a7.08,7.08 0 0 0 4.41,-6.62l0,-113.61a7.21,7.21 0 0 0 -7.22,-7.19zm1.22,120.8a1.14,1.14 0 0 1 -0.74,1.09a1.17,1.17 0 0 1 -1.34,-0.25l0,0l-28.86,-28.33a7.26,7.26 0 0 0 -10.13,0l-28.85,28.33a1.18,1.18 0 0 1 -1.34,0.25a1.14,1.14 0 0 1 -0.74,-1.09l0,-113.61a1.21,1.21 0 0 1 1.22,-1.19l69.56,0a1.21,1.21 0 0 1 1.22,1.19l0,113.61z"/>
 </g>
</svg>