<?xml version="1.0" encoding="utf-8"?>
<!-- Generator: Adobe Illustrator 24.1.1, SVG Export Plug-In . SVG Version: 6.00 Build 0)  -->
<svg version="1.1" id="Шар_1" xmlns="http://www.w3.org/2000/svg" xmlns:xlink="http://www.w3.org/1999/xlink" x="0px" y="0px"
	 viewBox="0 0 141.8 85.5" style="enable-background:new 0 0 141.8 85.5;" xml:space="preserve">
<style type="text/css">
	.st0{fill:#FFFFFF;stroke:#000000;stroke-width:0.25;stroke-miterlimit:10;}
	.st1{font-family:'Impact';}
	.st2{font-size:32.4068px;}
</style>
<text transform="matrix(0.5574 0 0 1 48.4154 25.4801)" class="st0 st1 st2">PlaceMarket</text>
<g>
	<g>
		<path class="st0" d="M33.9,14.3c-0.3-0.7-1.8-1.5-3-1.5H6.2c-2.2,0-4.1-1.2-4.1-2.7s1.8-2.7,4.1-2.7H31c4.7,0,9.4,2.4,10.8,5.4
			l6.7,15.7c0.8-0.1,1.5-0.2,2.4-0.2H131c2.5,0,4.9,0.7,6.6,1.9s2.5,2.9,2.2,4.6l-3.7,25.1c-0.5,3.3-4.8,6-9.9,6H63.9
			c-4.7,0-9.4-2.4-10.7-5.4l-7.8-19.1L33.9,14.3z M61.1,59.1c0.3,0.7,1.8,1.5,2.9,1.5h62.2c0.9,0,1.8-0.6,1.9-1.1l3.7-25.1
			c0-0.2,0-0.3-0.2-0.4c-0.1-0.1-0.3-0.2-0.7-0.2H50.6h-0.1c0,0,0,0,0,0.1L61.1,59.1z"/>
		<path class="st0" d="M114.3,68.9c6.9,0,12.5,3.7,12.5,8.3c0,4.6-5.6,8.3-12.5,8.3s-12.5-3.7-12.5-8.3
			C101.8,72.7,107.4,68.9,114.3,68.9z M114.3,80.2c2.5,0,4.5-1.3,4.5-3s-2-3-4.5-3c-2.5,0-4.5,1.3-4.5,3
			C109.8,78.9,111.9,80.2,114.3,80.2z"/>
		<path class="st0" d="M74.5,68.9c6.9,0,12.5,3.7,12.5,8.3c0,4.6-5.6,8.3-12.5,8.3s-12.5-3.7-12.5-8.3
			C61.9,72.7,67.6,68.9,74.5,68.9z M74.5,80.2c2.5,0,4.5-1.3,4.5-3s-2-3-4.5-3c-2.5,0-4.5,1.3-4.5,3C70.1,78.9,72.1,80.2,74.5,80.2z
			"/>
		<path class="st0" d="M2.7,29.2H32c1.5,0,2.7,0.8,2.7,1.8s-1.2,1.8-2.7,1.8H2.7C1.2,32.8,0,32,0,31S1.3,29.2,2.7,29.2z"/>
		<path class="st0" d="M10.9,37.5h25.9c1.5,0,2.7,0.8,2.7,1.8s-1.2,1.8-2.7,1.8H10.9c-1.5,0-2.7-0.8-2.7-1.8
			C8.2,38.3,9.4,37.5,10.9,37.5z"/>
		<path class="st0" d="M17.9,45.8h22.2c1.5,0,2.7,0.8,2.7,1.8s-1.2,1.8-2.7,1.8H17.9c-1.5,0-2.7-0.8-2.7-1.8S16.4,45.8,17.9,45.8z"
			/>
		<path class="st0" d="M72.9,39.3h41.6c2.4,0,4.3,0.8,4.3,1.8s-2,1.8-4.3,1.8H72.9c-2.4,0-4.3-0.8-4.3-1.8S70.5,39.3,72.9,39.3z"/>
		<path class="st0" d="M80.7,46.7h25.9c1.5,0,2.7,0.8,2.7,1.8s-1.2,1.8-2.7,1.8H80.7c-1.5,0-2.7-0.8-2.7-1.8
			C78.1,47.5,79.3,46.7,80.7,46.7z"/>
		<path class="st0" d="M84.5,53.5H103c1.1,0,2,0.8,2,1.8s-0.9,1.8-2,1.8H84.5c-1.1,0-2-0.8-2-1.8S83.4,53.5,84.5,53.5z"/>
	</g>
</g>
</svg>
