<?xml version="1.0" encoding="utf-8"?>
<!-- Generator: Adobe Illustrator 24.1.1, SVG Export Plug-In . SVG Version: 6.00 Build 0)  -->
<svg version="1.1" id="Шар_1" xmlns="http://www.w3.org/2000/svg" xmlns:xlink="http://www.w3.org/1999/xlink" x="0px" y="0px"
	 viewBox="0 0 127.4 85.5" style="enable-background:new 0 0 127.4 85.5;" xml:space="preserve">
<style type="text/css">
	.st0{font-family:'Impact';}
	.st1{font-size:32.4068px;}
	.st2{fill:none;}
</style>
<text transform="matrix(0.49 0 0 1 43.6492 25.4802)" class="st0 st1">PlaceMarket</text>
<rect x="86.3" y="-36.6" class="st2" width="66.2" height="9.7"/>
<g>
	<g>
		<path d="M30.9,14.3c-0.3-0.7-1.6-1.5-2.7-1.5H5.6c-2,0-3.7-1.2-3.7-2.7s1.6-2.7,3.7-2.7h22.6c4.3,0,8.6,2.4,9.8,5.4l6.1,15.7
			c0.7-0.1,1.4-0.2,2.2-0.2h73c2.3,0,4.5,0.7,6,1.9s2.3,2.9,2,4.6l-3.4,25.1c-0.5,3.3-4.4,6-9,6H58.2c-4.3,0-8.6-2.4-9.7-5.4
			l-7.1-19.1L30.9,14.3z M55.6,59.1c0.3,0.7,1.6,1.5,2.6,1.5h56.6c0.8,0,1.6-0.6,1.7-1.1l3.4-25.1c0-0.2,0-0.3-0.2-0.4
			c-0.1-0.1-0.3-0.2-0.6-0.2h-73H46c0,0,0,0,0,0.1L55.6,59.1z"/>
		<path d="M104.1,68.9c6.3,0,11.4,3.7,11.4,8.3c0,4.6-5.1,8.3-11.4,8.3c-6.3,0-11.4-3.7-11.4-8.3C92.7,72.7,97.8,68.9,104.1,68.9z
			 M104.1,80.2c2.3,0,4.1-1.3,4.1-3s-1.8-3-4.1-3s-4.1,1.3-4.1,3C100,78.9,101.9,80.2,104.1,80.2z"/>
		<path d="M67.8,68.9c6.3,0,11.4,3.7,11.4,8.3c0,4.6-5.1,8.3-11.4,8.3s-11.4-3.7-11.4-8.3C56.4,72.7,61.5,68.9,67.8,68.9z
			 M67.8,80.2c2.3,0,4.1-1.3,4.1-3s-1.8-3-4.1-3c-2.3,0-4.1,1.3-4.1,3C63.8,78.9,65.6,80.2,67.8,80.2z"/>
		<path d="M2.5,29.2h26.6c1.4,0,2.5,0.8,2.5,1.8s-1.1,1.8-2.5,1.8H2.5C1.1,32.8,0,32,0,31S1.2,29.2,2.5,29.2z"/>
		<path d="M9.9,37.5h23.6c1.4,0,2.5,0.8,2.5,1.8s-1.1,1.8-2.5,1.8H9.9c-1.4,0-2.5-0.8-2.5-1.8C7.5,38.3,8.6,37.5,9.9,37.5z"/>
		<path d="M16.3,45.8h20.2c1.4,0,2.5,0.8,2.5,1.8s-1.1,1.8-2.5,1.8H16.3c-1.4,0-2.5-0.8-2.5-1.8S14.9,45.8,16.3,45.8z"/>
		<path d="M66.4,39.3h37.9c2.2,0,3.9,0.8,3.9,1.8s-1.8,1.8-3.9,1.8H66.4c-2.2,0-3.9-0.8-3.9-1.8S64.2,39.3,66.4,39.3z"/>
		<path d="M73.5,46.7h23.6c1.4,0,2.5,0.8,2.5,1.8s-1.1,1.8-2.5,1.8H73.5c-1.4,0-2.5-0.8-2.5-1.8C71.1,47.5,72.2,46.7,73.5,46.7z"/>
		<path d="M76.9,53.5h16.9c1,0,1.8,0.8,1.8,1.8s-0.8,1.8-1.8,1.8H76.9c-1,0-1.8-0.8-1.8-1.8S75.9,53.5,76.9,53.5z"/>
	</g>
</g>
</svg>
